<svg width="240" height="48" viewBox="0 0 240 48" fill="none" xmlns="http://www.w3.org/2000/svg">
<path d="M23.0355 39.6651C13.1074 38.7089 4.32303 33.8868 1.06641 28.3218C1.23674 29.3642 2.4088 31.6419 2.94819 33.1439C3.34158 34.2438 3.90936 35.1385 4.17703 35.9469C8.28533 38.8895 13.002 40.4285 19.4828 41.0564C26.1664 41.7007 32.0429 40.8758 36.6784 38.635C32.6107 39.6816 28.1333 40.1576 23.0355 39.6651Z" fill="#FFD400"/>
<path d="M15.2974 19.4407C11.8785 15.6815 8.81252 11.8812 6.15611 8.17944C5.79922 8.6555 5.39367 9.20954 4.97189 9.83745C4.38788 10.6993 3.91744 11.5119 3.56055 12.1849C6.17639 15.0823 9.07207 18.0084 12.2111 20.8812C21.1577 29.0686 29.8731 34.3792 36.8365 38.2123C30.5585 33.542 22.9503 27.8498 15.2974 19.4407Z" fill="#FFD400"/>
<path d="M29.4189 12.8005C26.8639 7.65409 24.8645 4.2478 21.9242 0.254639C21.543 0.295678 20.9022 0.619892 19.7707 0.800466C18.9231 0.935897 18.0633 0.84561 17.3779 1.12468C21.6687 5.68419 25.1322 10.453 28.9404 17.3189C33.2717 25.1247 35.4455 31.3463 37.2705 37.8593C36.5 30.3572 34.237 22.5022 29.4189 12.8005Z" fill="#FFD400"/>
<path d="M25.2459 47.6224C12.8318 47.6224 2.7659 37.7729 2.7659 25.6252C2.7659 13.4774 12.7669 3.98085 25.1851 3.98085C37.3599 3.98085 47.3326 13.0958 47.7138 24.9193C47.726 24.6156 47.7341 24.3078 47.7341 24.0041C47.7341 10.7442 37.0477 0 23.8671 0C10.6864 0 0 10.7442 0 24C0 37.2558 10.6864 48 23.8671 48C26.4383 48 28.9122 47.5896 31.2279 46.8345C29.3218 47.3475 27.3183 47.6224 25.2459 47.6224Z" fill="#004F95"/>
<path d="M12.3857 13.8468C20.8943 5.06837 34.1317 4.40353 41.9509 12.3611C46.7283 17.2202 48.6223 24.554 46.9919 30.8413C49.2022 23.3598 47.8477 14.8769 42.2348 9.16413C34.006 0.796144 20.1359 1.32145 11.6273 10.0998C6.02253 15.8782 4.00691 23.881 5.63725 31.0629C5.40203 25.0301 7.67721 18.7059 12.3857 13.8468Z" fill="#B70E77"/>
<path d="M46.5617 26.1709C46.4928 20.8891 44.4975 16.0054 40.8272 13.4486C33.7299 8.50742 22.7069 12.3734 15.8367 22.5266C12.28 27.7838 10.6172 33.5991 10.82 38.6675C9.24641 32.7208 10.5442 25.3542 14.8634 18.9684C21.7376 8.81111 33.6488 4.99852 41.472 10.4445C46.1075 13.6702 48.3584 19.4691 47.9204 25.7359C47.9204 25.7359 47.7825 27.5416 47.6121 28.3296C47.454 29.0765 47.0444 30.7017 46.8821 31.1777C46.7159 31.6538 46.5617 26.1709 46.5617 26.1709Z" fill="#00855A"/>
<path d="M22.9785 23.1012C15.9704 30.6197 14.3847 40.6252 19.438 45.4432C19.661 45.6608 19.8962 45.8577 20.1396 46.0424C15.6906 41.5404 17.029 32.922 23.1813 26.1956C28.8347 20.011 38.4586 17.3064 43.1144 21.751C47.2186 25.6703 46.6711 33.1888 42.1654 39.5458C48.4029 32.1628 49.6398 22.8181 44.8096 18.2134C39.7604 13.3954 29.9865 15.5828 22.9785 23.1012Z" fill="#EC6502"/>
<path d="M29.5207 30.7631C24.8041 34.9081 23.2264 40.8875 25.9964 44.1174C28.1661 46.6454 32.3636 46.7357 36.3462 44.6632C32.9963 46.2227 29.541 46.0339 27.6997 43.8875C25.2421 41.023 26.5885 35.7658 30.7049 32.1461C34.8254 28.5264 40.1544 27.9108 42.6121 30.7754C44.4533 32.9217 44.1613 36.4101 42.166 39.5497C44.7494 35.8479 45.2482 31.6331 43.0785 29.101C40.3085 25.8752 34.2373 26.6181 29.5207 30.7631Z" fill="#D40E14"/>
<path d="M77.0972 28.3622C75.3038 29.4785 73.7853 29.815 71.5241 29.815H68.6143L66.8825 37.9532H63.2915L67.8715 16.5674H73.4447C76.0754 16.5674 77.6554 16.9696 78.706 17.6837C79.9741 18.5496 80.6554 19.9449 80.6554 21.4921C80.6554 24.6768 79.2026 27.0325 77.0972 28.3622ZM73.5063 19.4771H70.8141L69.234 26.9053H72.0206C73.7238 26.9053 74.6513 26.5318 75.3325 25.8218C76.26 24.8615 76.8182 23.499 76.8182 22.2021C76.8182 20.4374 75.8579 19.4771 73.5063 19.4771Z" fill="#D40E14"/>
<path d="M89.4502 26.8646C89.1753 26.7004 88.9044 26.647 88.494 26.647C87.5378 26.647 86.4707 27.3858 85.2724 29.0766L83.3887 37.9535H80.4092L82.375 28.7195C82.7854 26.8358 82.7567 25.7975 82.4858 24.8413L85.2724 23.6963C85.572 24.4063 85.6828 25.4446 85.4899 26.4008C86.7457 24.8167 88.2765 23.8071 89.6144 23.8071C90.1069 23.8071 90.3531 23.8604 90.7594 24.0246L89.4502 26.8646Z" fill="#D40E14"/>
<path d="M94.2852 38.2859C91.2278 38.2859 89.4795 36.5089 89.4795 33.3406C89.4795 28.0137 92.7298 23.8071 97.3181 23.8071C100.486 23.8071 102.206 25.6375 102.206 28.6703C102.206 33.7223 99.366 38.2859 94.2852 38.2859ZM96.8543 26.1012C94.1211 26.1012 92.7011 30.472 92.7011 33.6115C92.7011 35.2777 93.4932 36.0164 94.8311 36.0164C97.5069 36.0164 98.9556 31.9207 98.9556 28.5595C98.9556 26.7045 98.0814 26.1012 96.8543 26.1012Z" fill="#D40E14"/>
<path d="M119.619 20.2202C118.659 19.3542 117.514 19.0136 116.151 19.0136C114.263 19.0136 112.531 20.0355 111.259 21.6771C109.494 23.9384 108.473 28.2393 108.473 30.8371C108.473 33.9028 110.02 35.5116 112.806 35.5116C114.23 35.5116 115.437 35.0478 116.984 34.0588L118.252 36.4103C116.27 37.7113 114.165 38.331 111.846 38.331C107.295 38.331 104.603 35.4541 104.603 30.7181C104.603 27.2831 105.903 23.1668 108.099 20.4418C110.295 17.688 113.516 16.2024 116.672 16.2024C118.745 16.2024 120.604 16.8508 121.655 17.9055L119.619 20.2202Z" fill="#D40E14"/>
<path d="M129.279 26.8646C129.004 26.7004 128.733 26.647 128.323 26.647C127.367 26.647 126.3 27.3858 125.101 29.0766L123.218 37.9535H120.242L122.208 28.7195C122.618 26.8358 122.59 25.7975 122.319 24.8413L125.105 23.6963C125.405 24.4063 125.516 25.4446 125.323 26.4008C126.579 24.8167 128.11 23.8071 129.447 23.8071C129.94 23.8071 130.186 23.8604 130.592 24.0246L129.279 26.8646Z" fill="#D40E14"/>
<path d="M140.258 30.3612C139.108 31.4815 137.225 32.1095 134.385 32.1095C133.621 32.1095 132.965 31.9986 132.719 31.9986C132.665 32.2736 132.554 33.0082 132.554 33.4473C132.554 35.1669 133.564 35.9877 135.066 35.9877C136.515 35.9877 137.688 35.4952 138.973 34.4857L139.901 36.3447C138.234 37.6826 136.597 38.3105 134.274 38.3105C131.323 38.3105 129.357 36.5335 129.357 33.2586C129.357 30.5007 130.56 27.5212 132.444 25.6908C133.81 24.3776 135.337 23.8071 137.114 23.8071C139.79 23.8071 141.485 25.0383 141.485 27.4966C141.489 28.6129 141.05 29.5978 140.258 30.3612ZM136.736 26.0479C135.181 26.0479 133.814 27.2791 133.211 29.8728C133.375 29.8728 133.95 29.9549 134.414 29.9549C136.08 29.9549 137.225 29.7086 137.881 29.052C138.234 28.6991 138.456 28.2599 138.456 27.6854C138.456 26.7579 137.992 26.0479 136.736 26.0479Z" fill="#D40E14"/>
<path d="M154.38 33.1477C153.752 36.0698 153.862 36.9439 154.244 37.6005L151.675 38.1997C151.322 37.7647 151.1 37.0793 151.158 36.2052C150.091 37.5144 148.671 38.2284 147.087 38.2284C144.329 38.2284 143.016 36.591 143.016 33.476C143.016 30.7182 144.107 27.7674 146.048 25.855C147.358 24.5704 149.081 23.9138 150.665 23.9138C151.892 23.9138 152.849 24.1067 153.317 24.3529C153.317 24.2175 153.563 22.9617 153.67 22.4938L154.654 17.8481L157.523 18.3406L154.38 33.1477ZM150.555 26.3475C149.68 26.3475 148.696 26.7866 148.043 27.6033C146.923 28.9699 146.159 31.6457 146.159 33.5294C146.159 35.0315 146.705 35.8235 147.825 35.8235C148.975 35.8235 150.477 34.8139 151.322 33.3652L152.713 26.8933C152.139 26.5116 151.568 26.3475 150.555 26.3475Z" fill="#D40E14"/>
<path d="M160.58 37.9576H157.522L160.416 24.2996L163.555 23.8358L160.58 37.9576ZM162.845 22.1409C161.754 22.1409 160.851 21.238 160.851 20.1463C160.851 19.026 161.754 18.1272 162.874 18.1272C163.966 18.1272 164.84 19.0301 164.84 20.1217C164.84 21.238 163.966 22.1409 162.845 22.1409Z" fill="#D40E14"/>
<path d="M172.568 26.2655H169.917L168.361 33.6936C168.251 34.2149 168.197 34.6786 168.197 35.0315C168.197 35.9057 168.608 36.1807 169.482 36.1807C169.917 36.1807 170.438 36.0986 170.873 35.9057V37.7648C169.917 38.1465 168.961 38.3393 168.004 38.3393C166.145 38.3393 165.107 37.4118 165.107 36.0165C165.107 35.524 165.16 34.814 165.3 34.1328L166.97 26.2655H165.415L165.85 24.1355H167.405C167.68 22.8797 167.951 21.8127 168.308 20.7744L171.505 20.0356C171.123 21.2094 170.66 22.8222 170.385 24.1314H173.688L172.568 26.2655Z" fill="#D40E14"/>
<path d="M192.239 26.6304C194.496 27.0654 195.645 28.7973 195.645 30.9313C195.645 32.5113 194.869 34.4607 193.322 35.9135C191.713 37.3992 190.01 37.9573 186.452 37.9573H179.644L184.224 16.5715H190.909C194.964 16.5715 196.913 18.3362 196.913 21.2131C196.909 23.5319 195.456 25.7316 192.239 26.6304ZM188.369 28.3294H185.213L183.789 35.0476H187.195C188.463 35.0476 189.39 34.707 190.105 34.2104C191.032 33.562 191.746 32.2282 191.746 30.8985C191.742 29.1953 190.905 28.3294 188.369 28.3294ZM190.01 19.5715H187.039L185.832 25.391H188.927C190.256 25.391 191.061 25.1447 191.68 24.6481C192.452 24.0284 193.01 23.1009 193.01 21.9231C193.01 20.3759 192.267 19.5715 190.01 19.5715Z" fill="#D40E14"/>
<path d="M209.499 28.0137L208.379 33.4761C208.026 35.1423 208.19 35.8523 208.871 36.591L206.413 38.4214C205.674 37.8222 205.375 37.0547 205.375 36.156C204.39 37.4939 202.999 38.2859 201.222 38.2859C199.063 38.2859 197.614 36.8372 197.614 33.8865C197.614 30.829 198.759 27.8783 200.536 26.0479C202.01 24.5458 203.815 23.8071 206.027 23.8071C207.612 23.8071 209.224 24.1354 210.316 24.8454C210.074 25.6088 209.692 27.0287 209.499 28.0137ZM205.674 26.1833C204.443 26.1833 203.573 26.4583 202.506 27.7141C201.275 29.1915 200.705 31.8673 200.705 33.8044C200.705 35.3064 201.197 35.881 202.207 35.881C203.462 35.881 204.858 34.6252 205.486 33.2298L206.959 26.4542C206.688 26.2941 206.138 26.1833 205.674 26.1833Z" fill="#D40E14"/>
<path d="M224.056 28.067L221.955 37.9535H218.976L220.917 28.8016C221.052 28.2024 221.11 27.7633 221.11 27.4637C221.11 26.6717 220.757 26.3721 220.018 26.3721C219.037 26.3721 217.67 27.0533 216.222 28.9412L214.309 37.9535H211.354L213.374 28.3912C213.702 26.7784 213.731 25.8509 213.427 24.8413L216.214 23.6963C216.484 24.3242 216.653 25.3338 216.46 26.29C217.769 24.7059 219.517 23.8317 221.43 23.8317C223.149 23.8317 224.188 24.8946 224.188 26.565C224.192 27.0287 224.167 27.6033 224.056 28.067Z" fill="#D40E14"/>
<path d="M232.194 22.6333L228.915 37.9575H225.911L229.161 22.6866C229.543 20.9383 229.601 19.5717 229.379 18.7263L232.494 17.688C232.74 18.4513 232.716 20.1996 232.194 22.6333ZM233.754 30.1435L237.907 37.7646L234.546 38.1463L230.696 30.0614L236.405 23.8891L239.627 24.4349L233.754 30.1435Z" fill="#D40E14"/>
</svg>
