<svg width="180" height="143" viewBox="0 0 180 143" fill="none" xmlns="http://www.w3.org/2000/svg">
<path d="M88.5541 76.9585C73.6621 75.5342 60.4855 68.3511 55.6006 60.0616C55.8561 61.6144 57.6142 65.0072 58.4233 67.2447C59.0134 68.883 59.865 70.2157 60.2665 71.42C66.429 75.8031 73.5039 78.0956 83.2251 79.0309C93.2505 79.9907 102.065 78.7619 109.019 75.4241C102.917 76.983 96.2009 77.6921 88.5541 76.9585Z" fill="#FFD400"/>
<path d="M76.9466 46.8339C71.8183 41.2343 67.2193 35.5734 63.2347 30.0593C62.6993 30.7685 62.091 31.5937 61.4583 32.5291C60.5823 33.8128 59.8766 35.0232 59.3413 36.0258C63.2651 40.3417 67.6086 44.7004 72.3171 48.9797C85.737 61.1755 98.8102 69.086 109.255 74.7957C99.8382 67.8389 88.4259 59.3599 76.9466 46.8339Z" fill="#FFD400"/>
<path d="M98.1289 36.9425C94.2964 29.2765 91.2973 24.2025 86.8868 18.2544C86.315 18.3155 85.3538 18.7985 83.6566 19.0675C82.3851 19.2692 81.0955 19.1347 80.0674 19.5504C86.5036 26.3422 91.6988 33.4457 97.411 43.6731C103.908 55.3004 107.169 64.568 109.906 74.2697C108.75 63.0947 105.356 51.3941 98.1289 36.9425Z" fill="#FFD400"/>
<path d="M91.8684 88.8125C73.2473 88.8125 58.1484 74.1408 58.1484 56.0457C58.1484 37.9506 73.1499 23.8047 91.7772 23.8047C110.039 23.8047 124.998 37.3821 125.57 54.9942C125.588 54.5419 125.601 54.0834 125.601 53.631C125.601 33.8792 109.571 17.8749 89.8001 17.8749C70.0292 17.8749 53.9995 33.8792 53.9995 53.6249C53.9995 73.3705 70.0292 89.3749 89.8001 89.3749C93.6569 89.3749 97.3678 88.7636 100.841 87.6387C97.9822 88.4029 94.977 88.8125 91.8684 88.8125Z" fill="#004F95"/>
<path d="M72.5801 38.5015C85.3429 25.4254 105.199 24.4351 116.928 36.2886C124.094 43.5266 126.935 54.4509 124.489 63.8163C127.805 52.6719 125.773 40.036 117.354 31.5264C105.01 19.0616 84.2054 19.8441 71.4425 32.9202C63.0353 41.5276 60.0118 53.4483 62.4573 64.1464C62.1045 55.16 65.5173 45.7396 72.5801 38.5015Z" fill="#B70E77"/>
<path d="M123.845 56.8588C123.741 48.9911 120.748 41.7164 115.243 37.9079C104.597 30.5476 88.0625 36.3062 77.7573 51.4303C72.4222 59.2613 69.928 67.9237 70.2322 75.4735C67.8718 66.6155 69.8185 55.6423 76.2973 46.1301C86.6086 30.9999 104.475 25.3208 116.21 33.433C123.163 38.238 126.54 46.8759 125.883 56.2108C125.883 56.2108 125.676 58.9006 125.42 60.0743C125.183 61.1869 124.569 63.6078 124.325 64.3169C124.076 65.026 123.845 56.8588 123.845 56.8588Z" fill="#00855A"/>
<path d="M88.4702 52.2866C77.9581 63.486 75.5795 78.39 83.1594 85.5669C83.494 85.8909 83.8468 86.1843 84.2118 86.4594C77.5384 79.7532 79.5459 66.9155 88.7743 56.8959C97.2545 47.6834 111.69 43.6548 118.674 50.2753C124.83 56.1135 124.009 67.3128 117.251 76.7822C126.607 65.7845 128.462 51.8648 121.217 45.0058C113.643 37.8289 98.9822 41.0872 88.4702 52.2866Z" fill="#EC6502"/>
<path d="M98.2815 63.7005C91.2066 69.8748 88.8401 78.7818 92.9951 83.5929C96.2497 87.3586 102.546 87.4931 108.52 84.4059C103.495 86.7289 98.3119 86.4477 95.5501 83.2505C91.8636 78.9835 93.8832 71.1525 100.058 65.7606C106.239 60.3688 114.232 59.4518 117.919 63.7188C120.68 66.916 120.242 72.1123 117.249 76.7889C121.125 71.2748 121.873 64.9965 118.618 61.2247C114.463 56.4197 105.356 57.5262 98.2815 63.7005Z" fill="#D40E14"/>
<path d="M27.2218 117.6C25.7091 118.535 24.4283 118.817 22.521 118.817H20.0668L18.606 125.634H15.5771L19.4402 107.721H24.141C26.3598 107.721 27.6925 108.058 28.5787 108.656C29.6483 109.381 30.2229 110.55 30.2229 111.846C30.2229 114.513 28.9975 116.486 27.2218 117.6ZM24.1929 110.158H21.9221L20.5895 116.38H22.9398C24.3764 116.38 25.1587 116.067 25.7333 115.472C26.5156 114.668 26.9864 113.527 26.9864 112.44C26.9864 110.962 26.1764 110.158 24.1929 110.158Z" fill="#D40E14"/>
<path d="M37.6424 116.345C37.4105 116.207 37.182 116.162 36.8358 116.162C36.0293 116.162 35.1293 116.781 34.1185 118.197L32.5297 125.633H30.0166L31.6747 117.898C32.0208 116.32 31.9966 115.451 31.7681 114.65L34.1185 113.691C34.3712 114.285 34.4647 115.155 34.302 115.956C35.3612 114.629 36.6524 113.784 37.7808 113.784C38.1962 113.784 38.4039 113.828 38.7466 113.966L37.6424 116.345Z" fill="#D40E14"/>
<path d="M41.7195 125.911C39.1406 125.911 37.666 124.423 37.666 121.769C37.666 117.307 40.4076 113.784 44.2776 113.784C46.9499 113.784 48.4002 115.317 48.4002 117.857C48.4002 122.089 46.0049 125.911 41.7195 125.911ZM43.8864 115.705C41.581 115.705 40.3833 119.366 40.3833 121.996C40.3833 123.392 41.0514 124.01 42.1799 124.01C44.4368 124.01 45.6587 120.58 45.6587 117.764C45.6587 116.211 44.9214 115.705 43.8864 115.705Z" fill="#D40E14"/>
<path d="M63.0852 110.78C62.2752 110.055 61.3094 109.769 60.1602 109.769C58.5679 109.769 57.1071 110.625 56.0341 112C54.5456 113.894 53.6837 117.497 53.6837 119.673C53.6837 122.241 54.9887 123.588 57.339 123.588C58.5402 123.588 59.5579 123.2 60.8629 122.371L61.9325 124.341C60.2606 125.431 58.4848 125.95 56.529 125.95C52.6902 125.95 50.4194 123.54 50.4194 119.573C50.4194 116.696 51.5167 113.248 53.3687 110.966C55.2206 108.659 57.9379 107.415 60.5998 107.415C62.3479 107.415 63.916 107.958 64.8021 108.841L63.0852 110.78Z" fill="#D40E14"/>
<path d="M71.2356 116.345C71.0037 116.207 70.7752 116.162 70.4291 116.162C69.6225 116.162 68.7225 116.781 67.7117 118.197L66.1229 125.633H63.6133L65.2714 117.898C65.6175 116.32 65.5933 115.451 65.3648 114.65L67.7152 113.691C67.9679 114.285 68.0614 115.155 67.8987 115.956C68.9579 114.629 70.2491 113.784 71.3775 113.784C71.7929 113.784 72.0006 113.828 72.3433 113.966L71.2356 116.345Z" fill="#D40E14"/>
<path d="M80.4946 119.273C79.5254 120.212 77.9366 120.738 75.5412 120.738C74.8973 120.738 74.3435 120.645 74.1358 120.645C74.0908 120.875 73.9973 121.491 73.9973 121.858C73.9973 123.299 74.8489 123.986 76.1158 123.986C77.3377 123.986 78.3277 123.574 79.4112 122.728L80.1935 124.285C78.7881 125.406 77.4069 125.932 75.4477 125.932C72.9589 125.932 71.3008 124.443 71.3008 121.7C71.3008 119.39 72.315 116.895 73.9039 115.362C75.0565 114.262 76.3442 113.784 77.8431 113.784C80.1 113.784 81.5296 114.815 81.5296 116.874C81.5331 117.809 81.1627 118.634 80.4946 119.273ZM77.5246 115.661C76.2127 115.661 75.06 116.692 74.5512 118.864C74.6896 118.864 75.1742 118.933 75.5654 118.933C76.9708 118.933 77.9365 118.727 78.4904 118.177C78.7881 117.881 78.975 117.513 78.975 117.032C78.975 116.255 78.5839 115.661 77.5246 115.661Z" fill="#D40E14"/>
<path d="M92.4058 121.607C91.8762 124.055 91.9696 124.787 92.2916 125.337L90.1246 125.839C89.8269 125.474 89.64 124.9 89.6885 124.168C88.7885 125.265 87.5908 125.863 86.2546 125.863C83.9285 125.863 82.8208 124.491 82.8208 121.882C82.8208 119.572 83.7416 117.101 85.3789 115.499C86.4831 114.423 87.9369 113.873 89.2731 113.873C90.3081 113.873 91.1146 114.034 91.5093 114.241C91.5093 114.127 91.7169 113.075 91.8069 112.683L92.6377 108.792L95.0573 109.205L92.4058 121.607ZM89.1796 115.911C88.4423 115.911 87.6116 116.279 87.0612 116.963C86.1162 118.108 85.4723 120.349 85.4723 121.927C85.4723 123.185 85.9327 123.848 86.8777 123.848C87.847 123.848 89.1139 123.003 89.8269 121.789L91.0004 116.368C90.5158 116.049 90.0346 115.911 89.1796 115.911Z" fill="#D40E14"/>
<path d="M97.636 125.636H95.0571L97.4975 114.196L100.146 113.808L97.636 125.636ZM99.5467 112.388C98.626 112.388 97.8644 111.632 97.8644 110.718C97.8644 109.779 98.626 109.026 99.571 109.026C100.492 109.026 101.229 109.783 101.229 110.697C101.229 111.632 100.492 112.388 99.5467 112.388Z" fill="#D40E14"/>
<path d="M107.748 115.843H105.512L104.2 122.065C104.106 122.502 104.061 122.89 104.061 123.186C104.061 123.918 104.407 124.148 105.145 124.148C105.512 124.148 105.951 124.08 106.318 123.918V125.475C105.512 125.795 104.705 125.956 103.898 125.956C102.33 125.956 101.455 125.18 101.455 124.011C101.455 123.598 101.5 123.004 101.617 122.433L103.026 115.843H101.714L102.081 114.059H103.393C103.625 113.007 103.853 112.114 104.155 111.244L106.851 110.625C106.529 111.608 106.138 112.959 105.906 114.056H108.693L107.748 115.843Z" fill="#D40E14"/>
<path d="M124.34 116.15C126.244 116.515 127.213 117.965 127.213 119.753C127.213 121.076 126.559 122.709 125.254 123.926C123.897 125.17 122.46 125.638 119.459 125.638H113.716L117.579 107.725H123.218C126.638 107.725 128.282 109.203 128.282 111.613C128.279 113.555 127.054 115.398 124.34 116.15ZM121.076 117.574H118.414L117.212 123.201H120.086C121.155 123.201 121.937 122.915 122.54 122.499C123.322 121.956 123.924 120.839 123.924 119.725C123.921 118.299 123.215 117.574 121.076 117.574ZM122.46 110.238H119.954L118.936 115.112H121.546C122.668 115.112 123.346 114.906 123.869 114.49C124.52 113.971 124.991 113.194 124.991 112.208C124.991 110.912 124.364 110.238 122.46 110.238Z" fill="#D40E14"/>
<path d="M138.897 117.307L137.952 121.883C137.654 123.278 137.793 123.873 138.368 124.492L136.294 126.025C135.671 125.523 135.418 124.88 135.418 124.127C134.588 125.248 133.414 125.911 131.915 125.911C130.094 125.911 128.873 124.698 128.873 122.226C128.873 119.665 129.838 117.194 131.337 115.661C132.58 114.403 134.103 113.784 135.969 113.784C137.305 113.784 138.665 114.059 139.586 114.654C139.382 115.293 139.06 116.482 138.897 117.307ZM135.671 115.774C134.633 115.774 133.899 116.004 132.999 117.056C131.96 118.294 131.479 120.535 131.479 122.158C131.479 123.416 131.894 123.897 132.746 123.897C133.805 123.897 134.982 122.845 135.512 121.676L136.754 116.001C136.526 115.867 136.062 115.774 135.671 115.774Z" fill="#D40E14"/>
<path d="M151.175 117.352L149.403 125.633H146.89L148.527 117.967C148.642 117.465 148.69 117.097 148.69 116.846C148.69 116.183 148.392 115.932 147.769 115.932C146.942 115.932 145.789 116.503 144.567 118.084L142.954 125.633H140.462L142.165 117.623C142.442 116.272 142.466 115.495 142.21 114.65L144.56 113.691C144.789 114.217 144.931 115.062 144.768 115.863C145.872 114.536 147.347 113.804 148.96 113.804C150.41 113.804 151.286 114.695 151.286 116.094C151.29 116.482 151.269 116.963 151.175 117.352Z" fill="#D40E14"/>
<path d="M158.039 112.801L155.274 125.637H152.74L155.481 112.846C155.803 111.381 155.852 110.237 155.665 109.528L158.292 108.659C158.5 109.298 158.479 110.762 158.039 112.801ZM159.355 119.092L162.858 125.475L160.023 125.795L156.776 119.023L161.591 113.853L164.308 114.31L159.355 119.092Z" fill="#D40E14"/>
</svg>
