<svg width="96" height="96" viewBox="0 0 96 96" fill="none" xmlns="http://www.w3.org/2000/svg">
<path d="M46.0709 79.3299C26.2148 77.4175 8.64606 67.7731 2.13281 56.6432C2.47348 58.728 4.8176 63.2834 5.89638 66.2875C6.68317 68.4872 7.81873 70.2766 8.35406 71.8935C16.5707 77.7786 26.0039 80.8566 38.9655 82.1124C52.3327 83.4011 64.0858 81.7513 73.3568 77.2697C65.2213 79.3627 56.2666 80.3149 46.0709 79.3299Z" fill="#FFD400"/>
<path d="M30.5952 38.8812C23.7576 31.3627 17.6255 23.7622 12.3127 16.3586C11.5989 17.3108 10.7878 18.4188 9.94426 19.6746C8.77626 21.3983 7.83536 23.0235 7.12158 24.3696C12.3533 30.1644 18.1446 36.0166 24.4227 41.7622C42.3159 58.137 59.7467 68.7581 73.6736 76.4243C61.1175 67.0837 45.901 55.6993 30.5952 38.8812Z" fill="#FFD400"/>
<path d="M58.8379 25.6007C53.7278 15.3079 49.729 8.49535 43.8485 0.509033C43.086 0.591113 41.8044 1.23954 39.5414 1.60069C37.8462 1.87155 36.1266 1.69098 34.7559 2.24912C43.3375 11.3681 50.2644 20.9058 57.8807 34.6376C66.5434 50.2491 70.891 62.6924 74.541 75.7184C72.9999 60.7142 68.4739 45.0043 58.8379 25.6007Z" fill="#FFD400"/>
<path d="M50.4919 95.2449C25.6637 95.2449 5.5318 75.5458 5.5318 51.2503C5.5318 26.9549 25.5339 7.9617 50.3702 7.9617C74.7199 7.9617 94.6652 26.1915 95.4277 49.8386C95.452 49.2312 95.4682 48.6156 95.4682 48.0082C95.4682 21.4884 74.0953 0 47.7341 0C21.3729 0 0 21.4884 0 48C0 74.5116 21.3729 96 47.7341 96C52.8766 96 57.8244 95.1792 62.4558 93.669C58.6436 94.6949 54.6367 95.2449 50.4919 95.2449Z" fill="#004F95"/>
<path d="M24.771 27.6935C41.7882 10.1367 68.2629 8.80706 83.9012 24.7222C93.4562 34.4404 97.2441 49.108 93.9834 61.6826C98.404 46.7195 95.6948 29.7537 84.469 18.3283C68.0115 1.59229 40.2714 2.6429 23.2542 20.1997C12.0446 31.7564 8.01333 47.7619 11.274 62.1258C10.8036 50.0601 15.3539 37.4117 24.771 27.6935Z" fill="#B70E77"/>
<path d="M93.1235 52.3419C92.9856 41.7783 88.9949 32.0108 81.6543 26.8973C67.4598 17.015 45.4137 24.7468 31.6734 45.0533C24.56 55.5676 21.2344 67.1983 21.64 77.3351C18.4928 65.4418 21.0884 50.7085 29.7268 37.937C43.4752 17.6223 67.2976 9.99717 82.944 20.8891C92.215 27.3405 96.7167 38.9383 95.8407 51.4719C95.8407 51.4719 95.5649 55.0834 95.2243 56.6593C94.9079 58.1531 94.0887 61.4035 93.7643 62.3556C93.4317 63.3077 93.1235 52.3419 93.1235 52.3419Z" fill="#00855A"/>
<path d="M45.9579 46.2026C31.9419 61.2395 28.7704 81.2505 38.8769 90.8866C39.323 91.3216 39.7935 91.7156 40.2801 92.085C31.3822 83.0809 34.0589 65.8442 46.3635 52.3914C57.6704 40.022 76.9182 34.613 86.2298 43.5022C94.4383 51.3408 93.3433 66.3777 84.3318 79.0918C96.8067 64.3257 99.2806 45.6363 89.6202 36.427C79.5219 26.7909 59.974 31.1657 45.9579 46.2026Z" fill="#EC6502"/>
<path d="M59.0419 61.5269C49.6086 69.8169 46.4534 81.7758 51.9933 88.2355C56.3327 93.2916 64.7278 93.4721 72.6929 89.3271C65.9931 92.4461 59.0824 92.0686 55.4 87.7758C50.4846 82.0467 53.1775 71.5323 61.4103 64.2929C69.6512 57.0535 80.3093 55.8223 85.2246 61.5515C88.9071 65.8442 88.3231 72.821 84.3324 79.1C89.4992 71.6965 90.4969 63.2669 86.1574 58.2026C80.6175 51.7512 68.4751 53.2368 59.0419 61.5269Z" fill="#D40E14"/>
</svg>
