<svg width="161" height="32" viewBox="0 0 161 32" fill="none" xmlns="http://www.w3.org/2000/svg">
<path d="M15.4528 26.4433C8.79271 25.8058 2.89986 22.591 0.71521 18.881C0.829476 19.576 1.61573 21.0944 1.97757 22.0958C2.24147 22.829 2.62236 23.4255 2.80192 23.9645C5.5579 25.9262 8.72198 26.9521 13.0695 27.3708C17.5531 27.8003 21.4953 27.2504 24.6049 25.7565C21.8762 26.4542 18.8726 26.7716 15.4528 26.4433Z" fill="#FFD400"/>
<path d="M10.2616 12.9604C7.96816 10.4542 5.91138 7.92073 4.12938 5.45288C3.88996 5.77025 3.6179 6.13961 3.33496 6.55822C2.94319 7.13277 2.6276 7.6745 2.38818 8.1232C4.14298 10.0548 6.0855 12.0055 8.19126 13.9207C14.1929 19.379 20.0395 22.9194 24.7108 25.4748C20.4993 22.3612 15.3954 18.5664 10.2616 12.9604Z" fill="#FFD400"/>
<path d="M19.7351 8.53356C18.0211 5.10265 16.6798 2.83178 14.7074 0.169678C14.4517 0.197038 14.0218 0.41318 13.2628 0.533563C12.6941 0.62385 12.1174 0.563659 11.6576 0.749705C14.536 3.78938 16.8594 6.96858 19.4141 11.5459C22.3197 16.7497 23.7779 20.8974 25.0022 25.2394C24.4853 20.2381 22.9672 15.0014 19.7351 8.53356Z" fill="#FFD400"/>
<path d="M16.9358 31.7483C8.60802 31.7483 1.85546 25.1819 1.85546 17.0834C1.85546 8.98495 8.56449 2.6539 16.895 2.6539C25.0623 2.6539 31.7523 8.73051 32.008 16.6129C32.0162 16.4104 32.0216 16.2052 32.0216 16.0027C32.0216 7.16279 24.8528 0 16.0108 0C7.16882 0 0 7.16279 0 16C0 24.8372 7.16882 32 16.0108 32C17.7357 32 19.3953 31.7264 20.9487 31.223C19.67 31.565 18.3261 31.7483 16.9358 31.7483Z" fill="#004F95"/>
<path d="M8.30863 9.23117C14.0165 3.37892 22.8966 2.93569 28.1419 8.24075C31.3468 11.4801 32.6173 16.3693 31.5236 20.5609C33.0064 15.5732 32.0977 9.9179 28.3323 6.10942C22.8122 0.530762 13.5077 0.880968 7.79987 6.73322C4.03998 10.5855 2.68784 15.9206 3.78153 20.7086C3.62373 16.6867 5.15 12.4706 8.30863 9.23117Z" fill="#B70E77"/>
<path d="M31.2352 17.4473C31.189 13.9261 29.8505 10.6702 27.3883 8.96573C22.6272 5.67161 15.2326 8.2489 10.6239 15.0177C8.2379 18.5225 7.12245 22.3994 7.25848 25.7783C6.20288 21.8139 7.07348 16.9028 9.97093 12.6456C14.5824 5.87407 22.5728 3.33235 27.8209 6.96299C30.9305 9.11347 32.4405 12.9794 32.1467 17.1572C32.1467 17.1572 32.0542 18.3611 31.9399 18.8864C31.8338 19.3843 31.559 20.4678 31.4502 20.7852C31.3386 21.1025 31.2352 17.4473 31.2352 17.4473Z" fill="#00855A"/>
<path d="M15.4149 15.4008C10.7137 20.4131 9.64992 27.0835 13.0398 30.2955C13.1894 30.4405 13.3472 30.5718 13.5105 30.695C10.526 27.6936 11.4238 21.948 15.5509 17.4638C19.3435 13.3406 25.7995 11.5376 28.9228 14.5007C31.676 17.1136 31.3087 22.1259 28.2861 26.3639C32.4704 21.4419 33.3002 15.212 30.06 12.1423C26.6728 8.93024 20.1161 10.3885 15.4149 15.4008Z" fill="#EC6502"/>
<path d="M19.8032 20.5088C16.6391 23.2721 15.5808 27.2584 17.439 29.4117C18.8945 31.097 21.7104 31.1572 24.382 29.7755C22.1348 30.8152 19.8168 30.6894 18.5817 29.2584C16.933 27.3487 17.8362 23.8439 20.5976 21.4308C23.3618 19.0177 26.9367 18.6073 28.5854 20.517C29.8205 21.9479 29.6246 24.2735 28.2861 26.3665C30.0191 23.8987 30.3538 21.0888 28.8982 19.4007C27.04 17.2502 22.9673 17.7455 19.8032 20.5088Z" fill="#D40E14"/>
<path d="M51.7194 18.9082C50.5163 19.6524 49.4976 19.8767 47.9807 19.8767H46.0288L44.867 25.3022H42.458L45.5304 11.045H49.2691C51.0338 11.045 52.0938 11.3131 52.7986 11.7892C53.6493 12.3665 54.1063 13.2967 54.1063 14.3282C54.1063 16.4513 53.1317 18.0217 51.7194 18.9082ZM49.3104 12.9848H47.5044L46.4445 17.9369H48.3138C49.4563 17.9369 50.0785 17.6879 50.5355 17.2146C51.1577 16.5744 51.5322 15.666 51.5322 14.8015C51.5322 13.625 50.8879 12.9848 49.3104 12.9848Z" fill="#D40E14"/>
<path d="M60.0061 17.9096C59.8216 17.8002 59.6399 17.7646 59.3646 17.7646C58.7231 17.7646 58.0073 18.2571 57.2034 19.3843L55.9398 25.3022H53.941L55.2598 19.1463C55.5351 17.8904 55.5158 17.1982 55.3341 16.5608L57.2034 15.7974C57.4044 16.2707 57.4787 16.963 57.3494 17.6004C58.1918 16.5443 59.2187 15.8713 60.1162 15.8713C60.4466 15.8713 60.6117 15.9069 60.8843 16.0163L60.0061 17.9096Z" fill="#D40E14"/>
<path d="M63.2492 25.5238C61.1982 25.5238 60.0254 24.3391 60.0254 22.227C60.0254 18.6757 62.2058 15.8713 65.2838 15.8713C67.4092 15.8713 68.5627 17.0915 68.5627 19.1134C68.5627 22.4814 66.6576 25.5238 63.2492 25.5238ZM64.9727 17.4007C63.1391 17.4007 62.1866 20.3145 62.1866 22.4075C62.1866 23.5183 62.7179 24.0108 63.6154 24.0108C65.4104 24.0108 66.3822 21.2803 66.3822 19.0395C66.3822 17.8029 65.7958 17.4007 64.9727 17.4007Z" fill="#D40E14"/>
<path d="M80.244 13.48C79.5998 12.9027 78.8317 12.6757 77.9177 12.6757C76.6513 12.6757 75.4895 13.3569 74.636 14.4513C73.4522 15.9588 72.7667 18.8261 72.7667 20.558C72.7667 22.6018 73.8046 23.6743 75.6739 23.6743C76.6292 23.6743 77.4387 23.3651 78.4766 22.7058L79.3273 24.2735C77.9975 25.1408 76.5852 25.5539 75.0297 25.5539C71.9765 25.5539 70.1705 23.636 70.1705 20.4787C70.1705 18.1887 71.0433 15.4445 72.5162 13.6278C73.989 11.7919 76.1502 10.8015 78.2673 10.8015C79.6576 10.8015 80.9048 11.2338 81.6096 11.9369L80.244 13.48Z" fill="#D40E14"/>
<path d="M86.7248 17.9096C86.5403 17.8002 86.3586 17.7646 86.0833 17.7646C85.4418 17.7646 84.726 18.2571 83.9221 19.3843L82.6585 25.3022H80.6625L81.9812 19.1463C82.2565 17.8904 82.2372 17.1982 82.0555 16.5608L83.9249 15.7974C84.1258 16.2707 84.2002 16.963 84.0708 17.6004C84.9132 16.5443 85.9401 15.8713 86.8376 15.8713C87.168 15.8713 87.3332 15.9069 87.6057 16.0163L86.7248 17.9096Z" fill="#D40E14"/>
<path d="M94.0893 20.2406C93.3184 20.9876 92.0547 21.4062 90.1496 21.4062C89.6375 21.4062 89.1971 21.3323 89.0319 21.3323C88.9961 21.5156 88.9217 22.0053 88.9217 22.2981C88.9217 23.4445 89.599 23.9917 90.6066 23.9917C91.5785 23.9917 92.3658 23.6633 93.2276 22.9903L93.8498 24.2297C92.732 25.1216 91.6335 25.5402 90.0753 25.5402C88.0958 25.5402 86.7771 24.3555 86.7771 22.1722C86.7771 20.3337 87.5837 18.3473 88.8474 17.1271C89.7642 16.2516 90.7883 15.8713 91.9804 15.8713C93.7754 15.8713 94.9124 16.6921 94.9124 18.3309C94.9152 19.0751 94.6206 19.7317 94.0893 20.2406ZM91.7271 17.3651C90.6837 17.3651 89.7669 18.1859 89.3622 19.9151C89.4724 19.9151 89.8578 19.9698 90.1689 19.9698C91.2866 19.9698 92.0547 19.8056 92.4952 19.3679C92.732 19.1326 92.8807 18.8398 92.8807 18.4568C92.8807 17.8384 92.5696 17.3651 91.7271 17.3651Z" fill="#D40E14"/>
<path d="M103.563 22.0984C103.141 24.0464 103.216 24.6292 103.472 25.0669L101.748 25.4664C101.512 25.1764 101.363 24.7194 101.401 24.1367C100.686 25.0095 99.7331 25.4855 98.6704 25.4855C96.8203 25.4855 95.9393 24.3939 95.9393 22.3173C95.9393 20.4787 96.6716 18.5115 97.9739 17.2365C98.8521 16.3802 100.008 15.9424 101.071 15.9424C101.894 15.9424 102.536 16.071 102.85 16.2352C102.85 16.1449 103.015 15.3077 103.086 14.9958L103.747 11.8987L105.671 12.227L103.563 22.0984ZM100.997 17.5649C100.41 17.5649 99.7496 17.8576 99.3119 18.4021C98.5603 19.3132 98.0482 21.097 98.0482 22.3528C98.0482 23.3542 98.4144 23.8822 99.1659 23.8822C99.9368 23.8822 100.944 23.2092 101.512 22.2434L102.445 17.9287C102.059 17.6743 101.677 17.5649 100.997 17.5649Z" fill="#D40E14"/>
<path d="M107.722 25.3049H105.671L107.612 16.1996L109.718 15.8904L107.722 25.3049ZM109.242 14.7604C108.51 14.7604 107.904 14.1585 107.904 13.4308C107.904 12.6838 108.51 12.0847 109.261 12.0847C109.994 12.0847 110.58 12.6866 110.58 13.4143C110.58 14.1585 109.994 14.7604 109.242 14.7604Z" fill="#D40E14"/>
<path d="M115.764 17.5101H113.986L112.942 22.4623C112.868 22.8097 112.832 23.1189 112.832 23.3542C112.832 23.937 113.107 24.1203 113.694 24.1203C113.986 24.1203 114.335 24.0656 114.627 23.937V25.1764C113.986 25.4308 113.344 25.5594 112.703 25.5594C111.456 25.5594 110.759 24.9411 110.759 24.0108C110.759 23.6825 110.795 23.2092 110.888 22.755L112.009 17.5101H110.966L111.257 16.0902H112.301C112.485 15.253 112.667 14.5416 112.906 13.8494L115.051 13.3569C114.795 14.1394 114.484 15.2147 114.299 16.0874H116.516L115.764 17.5101Z" fill="#D40E14"/>
<path d="M128.96 17.7536C130.474 18.0436 131.245 19.1982 131.245 20.6209C131.245 21.6743 130.725 22.9739 129.687 23.9424C128.607 24.9328 127.465 25.3049 125.078 25.3049H120.511L123.583 11.0477H128.068C130.788 11.0477 132.096 12.2242 132.096 14.1421C132.093 15.6879 131.118 17.1544 128.96 17.7536ZM126.364 18.8863H124.247L123.291 23.3651H125.576C126.427 23.3651 127.049 23.138 127.528 22.807C128.15 22.3747 128.629 21.4855 128.629 20.599C128.627 19.4636 128.065 18.8863 126.364 18.8863ZM127.465 13.0477H125.472L124.662 16.9273H126.738C127.63 16.9273 128.17 16.7632 128.585 16.4321C129.103 16.019 129.477 15.4007 129.477 14.6154C129.477 13.584 128.979 13.0477 127.465 13.0477Z" fill="#D40E14"/>
<path d="M140.539 18.6757L139.787 22.3172C139.551 23.428 139.661 23.9014 140.118 24.3939L138.469 25.6141C137.973 25.2146 137.772 24.703 137.772 24.1038C137.111 24.9958 136.178 25.5238 134.986 25.5238C133.538 25.5238 132.566 24.558 132.566 22.5908C132.566 20.5525 133.334 18.5854 134.526 17.3651C135.515 16.3638 136.726 15.8713 138.21 15.8713C139.273 15.8713 140.355 16.0902 141.087 16.5635C140.924 17.0724 140.668 18.019 140.539 18.6757ZM137.973 17.4554C137.147 17.4554 136.564 17.6387 135.848 18.4759C135.022 19.4609 134.639 21.2447 134.639 22.5361C134.639 23.5375 134.97 23.9205 135.647 23.9205C136.489 23.9205 137.425 23.0833 137.847 22.1531L138.835 17.636C138.653 17.5293 138.284 17.4554 137.973 17.4554Z" fill="#D40E14"/>
<path d="M150.304 18.7112L148.895 25.3022H146.896L148.198 19.201C148.289 18.8015 148.328 18.5088 148.328 18.3091C148.328 17.781 148.091 17.5813 147.595 17.5813C146.937 17.5813 146.02 18.0355 145.049 19.294L143.766 25.3022H141.783L143.138 18.9274C143.358 17.8521 143.377 17.2338 143.174 16.5608L145.043 15.7974C145.225 16.216 145.338 16.8891 145.208 17.5266C146.087 16.4705 147.259 15.8877 148.542 15.8877C149.696 15.8877 150.392 16.5963 150.392 17.7099C150.395 18.019 150.379 18.4021 150.304 18.7112Z" fill="#D40E14"/>
<path d="M155.764 15.0888L153.564 25.305H151.549L153.729 15.1244C153.985 13.9589 154.024 13.0478 153.875 12.4842L155.965 11.792C156.13 12.3009 156.113 13.4664 155.764 15.0888ZM156.81 20.0957L159.596 25.1764L157.341 25.4308L154.759 20.0409L158.588 15.926L160.749 16.2899L156.81 20.0957Z" fill="#D40E14"/>
</svg>
