<?xml version="1.0" encoding="UTF-8"?>
<svg xmlns="http://www.w3.org/2000/svg" xmlns:xlink="http://www.w3.org/1999/xlink" width="560pt" height="561pt" viewBox="0 0 560 561" version="1.1">
<g id="surface1" >
<path style=" stroke:none;fill-rule:evenodd;fill:rgb(255,255,255);fill-opacity:1;" d="M 44.820313 326.273438 L 44.820313 294.5 L 53.535156 290.796875 L 53.535156 284.832031 L 56.164063 284.832031 L 56.164063 290.796875 L 61.28125 290.796875 L 61.28125 238.128906 L 68.644531 238.128906 L 68.644531 234.082031 C 68.644531 233.953125 68.746094 233.851563 68.871094 233.851563 L 73.214844 233.851563 C 73.34375 233.851563 73.445313 233.953125 73.445313 234.082031 L 73.445313 238.128906 L 79.386719 238.128906 L 79.386719 189.960938 L 93.632813 189.960938 L 93.632813 187.011719 L 99.871094 187.011719 L 99.871094 160.953125 C 113.816406 158.109375 128.105469 158.308594 142.664063 160.953125 L 142.664063 231.910156 L 160.21875 231.910156 L 160.21875 227.152344 L 165.710938 227.152344 L 165.710938 214.332031 L 173.894531 214.332031 L 173.894531 197.597656 C 173.894531 196.238281 175.007813 195.128906 176.363281 195.128906 L 176.363281 176.179688 C 176.363281 174.820313 177.476563 173.710938 178.832031 173.710938 L 179.65625 173.710938 L 179.65625 163.835938 C 179.65625 162.476563 180.765625 161.367188 182.125 161.367188 L 182.125 158.898438 C 182.125 157.539063 183.234375 156.429688 184.59375 156.429688 L 187.058594 156.429688 L 187.058594 152.996094 L 193.6875 152.996094 L 193.6875 78.753906 L 198.214844 70.296875 L 200.664063 70.296875 L 204.414063 60.558594 L 210.601563 60.558594 L 210.601563 59.210938 C 210.601563 58.84375 210.902344 58.539063 211.273438 58.539063 L 221.269531 58.539063 C 221.640625 58.539063 221.941406 58.84375 221.941406 59.210938 L 221.941406 60.558594 L 229.5625 60.558594 L 229.5625 70.296875 L 235.566406 70.296875 L 235.566406 153.089844 L 253.304688 153.089844 L 253.304688 156.566406 L 255.273438 156.566406 C 256.507813 156.566406 257.515625 157.574219 257.515625 158.808594 L 257.515625 168.453125 L 259.253906 168.453125 L 259.253906 179.515625 L 267.113281 179.515625 L 267.113281 170.648438 C 267.113281 169.339844 268.183594 168.265625 269.492188 168.265625 L 270.496094 168.265625 L 270.496094 166.257813 L 274.339844 166.257813 L 274.339844 103.644531 C 274.339844 101.871094 275.789063 100.421875 277.5625 100.421875 L 294.640625 100.421875 L 294.640625 97.289063 C 294.640625 96.347656 295.410156 95.574219 296.355469 95.574219 L 322.6875 95.574219 C 322.753906 95.574219 322.804688 95.625 322.804688 95.6875 L 322.804688 100.421875 L 337.34375 100.421875 L 340.90625 128.109375 L 340.90625 183.851563 L 343.753906 183.851563 L 343.753906 183.601563 C 343.753906 181.652344 345.347656 180.058594 347.296875 180.058594 L 349.871094 180.058594 C 351.003906 180.058594 352.019531 180.601563 352.667969 181.4375 L 365.320313 181.4375 L 365.320313 183.71875 L 386.628906 183.71875 L 386.628906 197.027344 L 395.683594 197.027344 L 396.890625 185.214844 L 398.09375 173.402344 L 400.5 197.027344 L 418.535156 197.027344 L 418.535156 241.707031 L 423.109375 241.707031 L 423.109375 247.226563 L 425.941406 247.226563 L 425.941406 248.140625 L 427.953125 248.140625 L 427.953125 247.773438 C 427.953125 246.214844 429.230469 244.941406 430.789063 244.941406 L 430.789063 227.574219 L 432.984375 227.574219 L 432.984375 229.03125 L 436.976563 229.03125 L 436.976563 180.101563 C 436.976563 178.703125 438.089844 177.554688 439.476563 177.496094 L 439.476563 175.960938 L 440.847656 175.960938 L 440.847656 164.640625 C 440.847656 162.640625 442.484375 161.007813 444.480469 161.007813 L 445.238281 161.007813 L 445.238281 157.996094 L 448.347656 155.144531 L 448.347656 147.558594 L 452.554688 147.558594 L 452.554688 155.144531 L 455.9375 156.910156 L 455.9375 159.292969 L 458.464844 161.902344 L 460.996094 161.902344 L 460.996094 175.960938 L 462.980469 175.960938 C 463.933594 175.960938 464.714844 176.738281 464.714844 177.691406 L 464.714844 212.023438 C 468.398438 212.023438 471.867188 212.714844 474.863281 214.042969 L 474.863281 208.179688 L 476.316406 208.179688 L 476.863281 201.40625 L 477.40625 194.636719 L 477.949219 201.40625 L 478.496094 208.179688 L 479.617188 208.179688 L 479.617188 217.035156 C 480.445313 217.761719 481.199219 218.558594 481.863281 219.425781 L 485.195313 219.425781 L 485.195313 226.925781 L 487.113281 226.925781 L 487.113281 234.238281 L 488.578125 234.238281 L 488.578125 238.066406 L 490.222656 238.066406 L 490.222656 234.421875 C 490.222656 232.8125 491.539063 231.496094 493.152344 231.496094 L 494.109375 231.496094 L 494.109375 230.535156 C 494.109375 230.15625 494.417969 229.847656 494.796875 229.847656 L 498.179688 229.847656 C 498.558594 229.847656 498.867188 230.15625 498.867188 230.535156 L 498.867188 231.496094 L 507.871094 231.496094 L 507.871094 240.390625 L 514.867188 240.390625 L 514.867188 326.273438 C 358.1875 326.273438 201.503906 326.273438 44.820313 326.273438 "/>
<path style=" stroke:none;fill-rule:evenodd;fill:rgb(255,255,255);fill-opacity:1;" d="M 71.414063 387.742188 L 89.929688 376.007813 L 71.164063 364.097656 L 51.964844 376.136719 L 71.414063 387.742188 "/>
<path style=" stroke:none;fill-rule:evenodd;fill:rgb(255,255,255);fill-opacity:1;" d="M 487.679688 387.742188 L 506.195313 376.007813 L 487.429688 364.097656 L 468.226563 376.136719 L 487.679688 387.742188 "/>
<path style=" stroke:none;fill-rule:evenodd;fill:rgb(255,255,255);fill-opacity:1;" d="M 113.230469 430.996094 L 238.5 430.996094 L 238.5 435.570313 L 113.230469 435.570313 L 113.230469 430.996094 "/>
<path style=" stroke:none;fill-rule:evenodd;fill:rgb(255,255,255);fill-opacity:1;" d="M 326.4375 430.996094 L 451.707031 430.996094 L 451.707031 435.570313 L 326.4375 435.570313 L 326.4375 430.996094 "/>
<path style=" stroke:none;fill-rule:evenodd;fill:rgb(255,255,255);fill-opacity:1;" d="M 279.945313 0.429688 C 434.546875 0.429688 559.878906 125.761719 559.878906 280.363281 C 559.878906 434.964844 434.546875 560.292969 279.945313 560.292969 C 125.34375 560.292969 0.0117188 434.964844 0.0117188 280.363281 C 0.0117188 125.761719 125.34375 0.429688 279.945313 0.429688 Z M 279.945313 8.726563 C 429.964844 8.726563 551.582031 130.339844 551.582031 280.363281 C 551.582031 430.382813 429.964844 552 279.945313 552 C 129.925781 552 8.308594 430.382813 8.308594 280.363281 C 8.308594 130.339844 129.925781 8.726563 279.945313 8.726563 "/>
<path style=" stroke:none;fill-rule:evenodd;fill:rgb(255,255,255);fill-opacity:1;" d="M 166.320313 372.054688 C 177.789063 374.660156 181.664063 380.109375 181.96875 390.457031 C 182.273438 400.808594 174.828125 410.078125 162.65625 410.765625 C 146.65625 411.664063 130.414063 411.261719 114.308594 411.261719 L 114.308594 338.261719 L 161.207031 338.261719 C 171.035156 338.261719 178.847656 347.574219 178.847656 356.242188 C 178.847656 364.914063 172.933594 371.179688 166.320313 372.054688 Z M 152.460938 380.894531 C 155.953125 380.894531 159.472656 384.148438 159.472656 388.117188 C 159.472656 392.082031 156.027344 395.257813 152.535156 395.257813 L 137.109375 395.257813 L 137.109375 380.894531 Z M 136.878906 352.777344 L 149.683594 352.777344 C 153.859375 352.777344 156.691406 356.242188 156.691406 359.863281 C 156.691406 363.484375 153.535156 366.871094 149.433594 366.835938 L 136.878906 366.835938 L 136.878906 352.777344 "/>
<path style=" stroke:none;fill-rule:evenodd;fill:rgb(255,255,255);fill-opacity:1;" d="M 183.53125 338.261719 L 206.394531 338.261719 L 206.394531 393.105469 L 237.089844 393.105469 L 257.679688 337.863281 C 265.894531 337.929688 274.070313 337.832031 282.292969 337.765625 L 309.71875 411.351563 L 286.707031 411.503906 L 282.902344 399.046875 L 257.097656 399.046875 L 253.265625 411.601563 C 229.988281 411.445313 206.914063 411.34375 183.53125 411.34375 Z M 278.15625 383.503906 L 270 356.800781 L 261.847656 383.503906 Z M 278.15625 383.503906 "/>
<path style=" stroke:none;fill-rule:evenodd;fill:rgb(255,255,255);fill-opacity:1;" d="M 372.621094 337.851563 L 395.328125 337.851563 L 395.328125 365.875 L 418.949219 337.851563 L 449.355469 337.851563 L 422.332031 365.484375 L 450.269531 411.15625 L 422.148438 411.15625 L 407.019531 381.140625 L 395.328125 393.09375 L 395.328125 411.308594 L 372.621094 411.308594 L 372.621094 337.851563 "/>
<path style=" stroke:none;fill-rule:evenodd;fill:rgb(255,255,255);fill-opacity:1;" d="M 337.683594 336.636719 C 357.835938 336.636719 367.429688 345.441406 370.953125 359.269531 L 351.28125 363.851563 C 349.023438 357.679688 344.636719 353.546875 338.367188 353.546875 C 328.878906 353.546875 323.472656 359.851563 323.472656 374.878906 C 323.472656 390.367188 327.28125 395.839844 338.0625 395.839844 C 344.632813 395.839844 350.214844 389.863281 352.230469 381.554688 L 371.34375 387.484375 C 368.046875 402.609375 358.125 412.40625 338.828125 412.527344 C 314.289063 412.679688 300.535156 397.546875 300.535156 375.953125 C 300.535156 354.359375 310.863281 336.636719 337.683594 336.636719 "/>
<path style=" stroke:none;fill-rule:evenodd;fill:rgb(255,255,255);fill-opacity:1;" d="M 261.511719 422.507813 C 267.441406 422.507813 270.265625 425.066406 271.300781 429.085938 L 265.515625 430.417969 C 264.851563 428.625 263.558594 427.421875 261.714844 427.421875 C 258.921875 427.421875 257.332031 429.253906 257.332031 433.625 C 257.332031 438.128906 258.453125 439.71875 261.625 439.71875 C 263.558594 439.71875 265.199219 437.980469 265.792969 435.5625 L 271.414063 437.289063 C 270.445313 441.683594 267.527344 444.53125 261.851563 444.566406 C 254.632813 444.613281 250.585938 440.214844 250.585938 433.9375 C 250.585938 427.660156 253.621094 422.507813 261.511719 422.507813 "/>
<path style=" stroke:none;fill-rule:evenodd;fill:rgb(255,255,255);fill-opacity:1;" d="M 272.535156 422.851563 L 279.085938 422.851563 L 279.085938 444.1875 L 272.535156 444.1875 L 272.535156 422.851563 "/>
<path style=" stroke:none;fill-rule:evenodd;fill:rgb(255,255,255);fill-opacity:1;" d="M 311.511719 423.15625 L 318.769531 423.15625 L 310.746094 435.402344 L 310.746094 444.1875 L 304.195313 444.1875 L 304.195313 435.402344 L 299.457031 428.375 L 293.148438 428.375 L 293.148438 444.1875 L 286.59375 444.1875 L 286.59375 428.375 L 279.925781 428.375 L 279.925781 422.851563 L 303.28125 422.851563 L 307.464844 430.171875 L 311.511719 423.15625 "/>
</g>
</svg>
