<svg width="803" height="600" viewBox="0 0 803 600" fill="none" xmlns="http://www.w3.org/2000/svg">
<path opacity="0.1" fill-rule="evenodd" clip-rule="evenodd" d="M46.4719 424.44C46.4432 422.597 46.4289 420.751 46.4289 418.902C46.4289 392.272 49.439 366.417 55.1529 341.609C63.6372 304.845 78.0932 270.414 97.5698 239.11C105.935 247.728 114.449 256.326 123.108 264.909C85.943 340.422 76.0847 425.27 93.7861 504.45C94.0139 505.473 94.2463 506.496 94.4833 507.517L94.4827 507.501L94.4857 507.514C91.7567 435.24 111.378 360.285 153.182 294.122C169.804 309.957 186.902 325.761 204.444 341.565C209.854 346.401 215.258 351.176 220.656 355.891C184.446 423.792 167.993 495.837 170.641 562.294H170.653C171.164 575.013 172.383 587.523 174.307 599.754H181.637C185.037 530.267 209.457 454.889 254.248 384.547C280.233 406.194 306.007 426.485 331.434 445.535C308.245 482.065 292.165 519.944 283.58 556.746C283.108 558.734 282.657 560.718 282.228 562.698H282.255C279.6 575.223 277.821 587.607 276.934 599.754H296.89C304.812 555.559 325.313 508.681 357.622 464.815C393.374 490.676 428.332 514.115 462.108 535.465C445.11 555.983 432.286 577.869 423.956 599.754H457.351C464.719 583.42 475.099 567.086 488.095 551.633C494.457 555.528 500.771 559.349 507.035 563.099H507.667C529.408 576.134 550.549 588.319 570.976 599.755H582.379C556.108 580.484 528.659 560.078 500.342 538.153C504.877 533.578 509.688 529.125 514.773 524.835C535.396 507.094 557.847 493.764 580.285 485.053C589.988 510.703 598.659 535.905 606.705 561.074L606.81 561.406L606.983 561.949L607.22 562.697H607.223C611.155 575.039 614.94 587.375 618.624 599.755H621.882C620.3 587.485 618.465 575.14 616.361 562.697H616.587C612.044 535.301 606.175 507.458 598.791 478.908C613.178 474.937 627.349 472.914 640.809 472.894C670.182 472.936 696.137 482.539 713.515 502.279C735.1 526.849 739.172 562.698 727.769 599.351H731.435C736.536 586.9 740.104 574.449 742.077 562.295H742.43C748.131 528.863 741.615 497.445 721.252 474.889C702.116 452.948 673.404 442.29 640.707 442.19C640.236 442.188 639.764 442.189 639.292 442.192C623.784 442.28 607.392 444.734 590.71 449.477C579.594 411.191 565.737 371.524 548.707 329.884C613.873 311.527 678.123 316.604 719.696 353.865C720.356 354.456 721.01 355.056 721.659 355.663C721.754 355.752 721.849 355.841 721.944 355.93L722.111 356.088C772.613 403.664 780.622 482.782 750.981 563.1H750.985C746.435 575.342 740.998 587.598 734.691 599.754H741.207C749.089 587.667 756.2 575.418 762.524 563.1H762.791C779.835 529.918 791.129 496.211 796.355 463.824C796.41 463.589 796.465 463.359 796.518 463.134L796.595 462.805C797.637 458.097 798.624 451.184 799.457 444.307C809.665 370.987 799.111 295.328 765.238 229.589H765.06C759.979 219.704 754.374 210.044 748.237 200.651C679.882 80.9065 549.474 0 399.928 0C238.467 0 99.3141 94.3127 36.4842 229.992H35.8386C13.0322 279.535 0 334.315 0 392.316C0 453.541 14.254 511.14 39.5039 562.697H40.2458C46.5211 575.461 53.4841 587.83 61.0901 599.754H97.336C90.0187 587.813 83.4204 575.445 77.5872 562.697H77.7861C58.552 520.38 47.2631 473.573 46.4719 424.44ZM531.314 475.772C543.803 468.181 556.531 461.844 569.24 456.794C554.306 419.803 536.988 381.599 516.116 340.988C469.31 359.701 423.918 389.856 388.115 428.166C385.093 431.398 382.14 434.658 379.257 437.943C390.503 447.964 401.687 457.705 412.793 467.186C434.357 485.567 455.628 502.948 476.488 519.474C481.499 514.33 486.788 509.304 492.352 504.42C493.168 503.703 493.989 502.99 494.817 502.279C501.935 496.183 509.235 490.535 516.659 485.342C521.497 481.958 526.387 478.768 531.314 475.772ZM410.115 352.843C401.494 360.599 393.06 368.792 384.857 377.414C373.563 389.251 363.123 401.468 353.549 413.95L353.414 414.127C353.357 414.201 353.3 414.274 353.244 414.348C329.682 392.588 305.912 369.548 282.087 345.039C329.009 284.659 385.287 239.937 443.142 213.236C446.527 218.605 449.915 224.054 453.31 229.589H453.277C463.458 246.507 474.047 264.229 484.635 282.758L484.74 282.941C487.057 287.032 489.338 291.096 491.583 295.135C463.525 310.255 435.978 329.578 410.115 352.843ZM319.414 229.589C348.354 203.519 379.689 182.212 412.085 166.084C401.965 151.404 391.794 137.309 381.49 123.669C318.554 140.773 257.959 174.999 207.294 225.967C206.109 227.169 204.933 228.377 203.767 229.589H204.038C199.456 234.314 195.017 239.12 190.721 244.003C209.33 265.915 228.701 287.877 248.797 309.799L248.834 309.745C269.604 279.535 293.632 252.548 319.29 229.589H319.414ZM503.369 229.589C511.569 246.235 519.289 262.548 526.553 278.559C610.487 244.125 694.638 247.66 748.294 295.947C735.085 270.055 717.729 247.509 696.41 229.992H697.157C692.734 226.281 688.14 222.786 683.378 219.52C627.553 181.383 557.088 175.243 486.117 196.804C488.182 200.819 490.267 204.899 492.375 209.048C495.892 215.951 499.328 222.797 502.684 229.589H503.369ZM594.231 132.348C550.773 126.273 504.671 131.335 459.351 146.474C452.899 134.801 446.516 123.615 440.09 112.749C492.914 107.339 545.74 113.8 594.231 132.348ZM340.42 72.9692C261.594 89.0445 192.18 128.157 140.623 182.838C146.71 190.552 152.897 198.282 159.183 206.026C169.86 191.663 181.689 177.859 194.669 164.743C236.989 122.169 287.172 91.4902 340.42 72.9692Z" fill="#787F90"/>
</svg>
